# xmcd CD database file
#
# Track frame offsets:
#	150
#	10319
#	22976
#	36831
#	49657
#	64282
#	75927
#	90049
#	104458
#	137834
#	152517
#	159958
#	182806
#	197138
#	211368
#	224992
#	233719
#	252613
#	264760
#	282571
#
# Disc length: 4119 seconds
#
# Revision: 4
# Processed by: cddbd v1.5.2PL0 Copyright (c) Steve Scherf et al.
# Submitted via: CDex 1.70beta2
#
DISCID=13101514
DTITLE=Various Artist - Best Swing Jazz 100 (Disc1)
DYEAR=2009
DGENRE=Jazz
TTITLE0=Let’s Dance
TTITLE1=Bugle Call Rag
TTITLE2=Don’t Be That Way
TTITLE3=Blue Lou
TTITLE4=Stompin’At The Savoy
TTITLE5=Goody Goody
TTITLE6=Big John’s Special
TTITLE7=Down South Camp Meetin’
TTITLE8=Sing，Sing，Sing
TTITLE9=Good-Bye
TTITLE10=Ciribirbin
TTITLE11=James Session
TTITLE12=Music Makers
TTITLE13=Sleepy Lagoon
TTITLE14=Melancholy Rhapsody
TTITLE15=Sleepy Time Gal
TTITLE16=September Song
TTITLE17=Trumpet Blues
TTITLE18=Air Mail Special
TTITLE19=Stardust
EXTD=YEAR: 2009
EXTT0=
EXTT1=
EXTT2=
EXTT3=
EXTT4=
EXTT5=
EXTT6=
EXTT7=
EXTT8=
EXTT9=
EXTT10=
EXTT11=
EXTT12=
EXTT13=
EXTT14=
EXTT15=
EXTT16=
EXTT17=
EXTT18=
EXTT19=
PLAYORDER=
